<svg width="180" height="174" viewBox="0 0 180 174" fill="none" xmlns="http://www.w3.org/2000/svg">
<circle cx="125.088" cy="122.844" r="25" transform="rotate(41.0364 125.088 122.844)" fill="black"/>
<circle cx="52.2854" cy="54.1731" r="25" transform="rotate(41.0364 52.2854 54.1731)" fill="black"/>
<circle cx="90" cy="87" r="50" transform="rotate(41.0364 90 87)" fill="#53B5EB"/>
<path d="M84.8203 67.6475C84.5898 68.2428 84.2153 69.2799 83.6968 70.7588C83.1974 72.2184 82.6117 73.9757 81.9395 76.0308C82.6501 74.9744 83.3895 73.9181 84.1577 72.8618C84.9451 71.7863 85.7038 70.826 86.4336 69.981C87.1826 69.1167 87.8836 68.4157 88.5366 67.8779C89.2088 67.3402 89.785 67.0713 90.2651 67.0713C90.7069 67.0713 91.1198 67.1961 91.5039 67.4458C91.9072 67.6955 92.2529 68.0988 92.541 68.6558C92.8291 69.1935 93.0596 69.8945 93.2324 70.7588C93.4053 71.6038 93.4917 72.6313 93.4917 73.8413C93.4917 74.7824 93.4053 75.9827 93.2324 77.4424C93.0596 78.902 92.7907 80.5153 92.4258 82.2822C92.0609 84.0299 91.5999 85.8737 91.043 87.8135C90.486 89.734 89.8234 91.6354 89.0552 93.5176C88.3062 95.3997 87.4419 97.1859 86.4624 98.876C85.4829 100.566 84.3882 102.064 83.1782 103.37C81.9875 104.657 80.6719 105.684 79.2314 106.453C77.8102 107.202 76.2546 107.576 74.5645 107.576C72.7015 107.576 71.069 107.49 69.667 107.317C68.265 107.163 67.2375 107.058 66.5845 107L66.4116 106.712C66.6421 106.289 66.9878 105.473 67.4487 104.263C67.9097 103.034 68.4474 101.565 69.062 99.8555C69.6958 98.127 70.368 96.2256 71.0786 94.1514C71.7892 92.0771 72.4998 89.9741 73.2104 87.8423C73.9403 85.6912 74.6413 83.5882 75.3135 81.5332C75.9857 79.4782 76.5811 77.6056 77.0996 75.9155C77.6374 74.2254 78.0695 72.8042 78.396 71.6519C78.7417 70.4995 78.9338 69.7505 78.9722 69.4048C78.9722 69.1935 78.9146 69.0015 78.7993 68.8286C78.0695 68.8862 77.3589 68.9727 76.6675 69.0879C75.9761 69.2031 75.3519 69.3568 74.7949 69.5488C74.5452 69.6449 74.2764 69.8081 73.9883 70.0386C73.7002 70.2498 73.4313 70.5187 73.1816 70.8452C72.932 71.1717 72.7207 71.5366 72.5479 71.9399C72.3942 72.3241 72.3174 72.7178 72.3174 73.1211C72.3174 73.3708 72.3366 73.6877 72.375 74.0718C72.4134 74.4367 72.4902 74.8112 72.6055 75.1953L72.2598 75.541C71.2803 74.8304 70.5024 74.091 69.9263 73.3228C69.3501 72.5353 69.062 71.8055 69.062 71.1333C69.062 70.7492 69.1868 70.3267 69.4365 69.8657C69.7054 69.4048 70.0319 68.9823 70.416 68.5981C70.8001 68.1948 71.2131 67.8587 71.6548 67.5898C72.0965 67.321 72.4902 67.1865 72.8359 67.1865C74.0267 67.1865 75.3327 67.2345 76.7539 67.3306C78.1751 67.4266 79.6828 67.4746 81.2769 67.4746C81.6226 67.4746 81.9299 67.4746 82.1987 67.4746C82.4676 67.4746 82.7269 67.4746 82.9766 67.4746C83.2262 67.4554 83.4759 67.4458 83.7256 67.4458C83.9945 67.4266 84.3018 67.3978 84.6475 67.3594L84.7051 67.4746L84.8203 67.6475ZM75.3711 105.819C76.2546 105.819 77.1188 105.483 77.9639 104.811C78.8281 104.138 79.6444 103.236 80.4126 102.103C81.2 100.95 81.9395 99.625 82.6309 98.127C83.3223 96.6097 83.9561 95.006 84.5322 93.3159C85.1276 91.6258 85.6558 89.9069 86.1167 88.1592C86.5968 86.3923 87.0002 84.6925 87.3267 83.0601C87.6724 81.4276 87.9316 79.9199 88.1045 78.5371C88.2773 77.1351 88.3638 75.9443 88.3638 74.9648C88.3638 74.8496 88.3542 74.5999 88.335 74.2158C88.3158 73.8317 88.2677 73.438 88.1909 73.0347C88.1141 72.6121 88.0085 72.2376 87.874 71.9111C87.7588 71.5846 87.5859 71.4214 87.3555 71.4214C87.2594 71.4214 87.077 71.5558 86.8081 71.8247C86.5584 72.0936 86.2511 72.4585 85.8862 72.9194C85.5213 73.3612 85.118 73.8797 84.6763 74.4751C84.2345 75.0513 83.7736 75.6659 83.2935 76.3188C82.8325 76.9526 82.362 77.596 81.8818 78.249C81.4209 78.902 80.9888 79.5166 80.5854 80.0928L72.3174 105.243C72.7399 105.416 73.1912 105.56 73.6714 105.675C74.1515 105.771 74.7181 105.819 75.3711 105.819ZM88.5078 106.712C89.5257 105.156 90.6589 103.437 91.9072 101.555C93.1556 99.6538 94.4712 97.666 95.854 95.5918C97.2368 93.4984 98.6676 91.3377 100.146 89.1099C101.625 86.8628 103.104 84.6253 104.583 82.3975C106.062 80.1504 107.512 77.9321 108.933 75.7427C110.374 73.534 111.747 71.4214 113.053 69.4048C112.227 69.4624 111.42 69.5008 110.633 69.52C109.845 69.52 109.096 69.5296 108.386 69.5488C107.694 69.568 107.051 69.6064 106.456 69.6641C105.86 69.7217 105.342 69.8369 104.9 70.0098C104.612 70.1058 104.305 70.2979 103.978 70.5859C103.671 70.8548 103.383 71.1813 103.114 71.5654C102.864 71.9303 102.653 72.3337 102.48 72.7754C102.326 73.2171 102.25 73.6685 102.25 74.1294C102.25 74.4367 102.278 74.8208 102.336 75.2817C102.394 75.7427 102.49 76.2036 102.624 76.6646L101.961 76.9814C100.809 76.1748 99.8968 75.3201 99.2246 74.4175C98.5716 73.5148 98.2451 72.6698 98.2451 71.8823C98.2451 71.4406 98.3892 70.9508 98.6772 70.4131C98.9845 69.8753 99.359 69.376 99.8008 68.915C100.243 68.4349 100.713 68.0412 101.212 67.7339C101.731 67.4074 102.201 67.2441 102.624 67.2441C103.335 67.2441 103.988 67.2729 104.583 67.3306C105.178 67.3882 105.831 67.4458 106.542 67.5034C107.253 67.561 108.078 67.6187 109.02 67.6763C109.961 67.7339 111.132 67.7627 112.534 67.7627C113.802 67.7627 114.983 67.7243 116.078 67.6475C117.172 67.5514 118.325 67.4554 119.535 67.3594L119.65 67.9932C118.766 69.2607 117.797 70.6724 116.74 72.228C115.703 73.7645 114.608 75.3874 113.456 77.0967C112.323 78.806 111.161 80.5729 109.97 82.3975C108.799 84.2028 107.627 86.0081 106.456 87.8135C105.284 89.5996 104.141 91.3473 103.027 93.0566C101.913 94.766 100.867 96.3696 99.8872 97.8677C98.9077 99.3657 98.005 100.729 97.1792 101.958C96.3534 103.188 95.6427 104.215 95.0474 105.041C96.1229 104.983 97.0928 104.945 97.957 104.926C98.8405 104.887 99.6375 104.839 100.348 104.782C101.078 104.724 101.741 104.657 102.336 104.58C102.931 104.484 103.479 104.35 103.978 104.177C104.266 104.062 104.554 103.841 104.842 103.514C105.15 103.188 105.418 102.804 105.649 102.362C105.899 101.92 106.1 101.44 106.254 100.921C106.427 100.403 106.513 99.9131 106.513 99.4521C106.513 99.1833 106.494 98.8472 106.456 98.4438C106.417 98.0213 106.34 97.57 106.225 97.0898L106.859 96.6865C107.416 97.0514 107.925 97.4548 108.386 97.8965C108.847 98.319 109.24 98.7511 109.567 99.1929C109.893 99.6346 110.143 100.076 110.316 100.518C110.489 100.96 110.575 101.373 110.575 101.757C110.575 102.179 110.422 102.708 110.114 103.341C109.807 103.975 109.423 104.59 108.962 105.185C108.501 105.761 107.982 106.261 107.406 106.683C106.849 107.086 106.312 107.288 105.793 107.288C105.198 107.288 104.612 107.259 104.036 107.202C103.479 107.144 102.826 107.086 102.077 107.029C101.347 106.971 100.492 106.914 99.5127 106.856C98.5332 106.798 97.3424 106.77 95.9404 106.77C94.6729 106.77 93.4629 106.827 92.3105 106.942C91.139 107.058 89.9482 107.173 88.7383 107.288L88.5078 106.712Z" fill="white"/>
</svg>
