<svg width="69" height="41" viewBox="0 0 69 41" fill="none" xmlns="http://www.w3.org/2000/svg">
<path d="M30.8989 0.647461C30.7069 1.14681 30.4092 1.97266 30.0059 3.125C29.6217 4.27734 29.1608 5.65055 28.623 7.24463C28.0853 8.8387 27.4899 10.6056 26.8369 12.5454C26.2031 14.466 25.5405 16.4634 24.8491 18.5376C24.1769 20.5926 23.4951 22.6668 22.8037 24.7603C22.1315 26.8345 21.4785 28.8223 20.8447 30.7236C20.2301 32.625 19.6636 34.3727 19.145 35.9668C18.6265 37.5609 18.1943 38.9053 17.8486 40C17.6182 40.0384 17.3685 40.0672 17.0996 40.0864C16.6387 40.144 16.0049 40.1729 15.1982 40.1729C14.8141 40.1729 14.4012 40.1536 13.9595 40.1152C13.5369 40.096 13.1048 40.0576 12.6631 40L12.4902 39.7119C12.7207 39.2894 13.0664 38.4539 13.5273 37.2056C14.0075 35.9572 14.5549 34.4591 15.1694 32.7114C15.8032 30.9637 16.485 29.0431 17.2148 26.9497C17.9447 24.8371 18.6745 22.6956 19.4043 20.5254L12.375 20.6406C11.7412 22.542 11.1074 24.4338 10.4736 26.3159C9.85905 28.1981 9.27327 29.9938 8.71631 31.7031C8.17855 33.3932 7.6792 34.9585 7.21826 36.3989C6.75732 37.8201 6.37321 39.0205 6.06592 40C5.83545 40.0384 5.58577 40.0672 5.31689 40.0864C5.08643 40.1248 4.80794 40.144 4.48145 40.144C4.15495 40.1632 3.79964 40.1729 3.41553 40.1729C2.58968 40.1729 1.74463 40.1152 0.880371 40L0.678711 39.7119C0.90918 39.2894 1.25488 38.4731 1.71582 37.2632C2.17676 36.034 2.72412 34.5648 3.35791 32.8555C3.97249 31.127 4.63509 29.2256 5.3457 27.1514C6.05632 25.0771 6.76693 22.9741 7.47754 20.8423C8.20736 18.6912 8.90837 16.5882 9.58057 14.5332C10.2528 12.4782 10.8577 10.6056 11.3955 8.91553C11.9333 7.22542 12.3654 5.8042 12.6919 4.65186C13.0376 3.49951 13.2297 2.75049 13.2681 2.40479C13.2681 2.25114 13.2393 2.1167 13.1816 2.00146C13.124 1.86702 13.0472 1.771 12.9512 1.71338V1.36768C13.4697 1.21403 13.9499 1.08919 14.3916 0.993164C14.8333 0.87793 15.2751 0.791504 15.7168 0.733887C16.1777 0.657064 16.6675 0.599447 17.186 0.561035C17.7046 0.522624 18.3 0.493815 18.9722 0.474609L19.0874 0.647461C18.8953 1.14681 18.5977 1.99186 18.1943 3.18262C17.791 4.35417 17.3109 5.76579 16.7539 7.41748C16.1969 9.04997 15.5824 10.8553 14.9102 12.8335C14.2572 14.8117 13.585 16.8475 12.8936 18.9409L19.9805 18.8257C20.6335 16.8667 21.248 14.9653 21.8242 13.1216C22.4196 11.2778 22.9478 9.61654 23.4087 8.1377C23.8696 6.65885 24.2441 5.41048 24.5322 4.39258C24.8395 3.37467 25.0124 2.71208 25.0508 2.40479C25.0508 2.07829 24.9548 1.84782 24.7627 1.71338V1.36768C25.2812 1.21403 25.7614 1.08919 26.2031 0.993164C26.6449 0.87793 27.0866 0.791504 27.5283 0.733887C27.9893 0.657064 28.479 0.599447 28.9976 0.561035C29.5161 0.522624 30.1115 0.493815 30.7837 0.474609L30.8989 0.647461ZM55.8184 10.6729C55.5687 11.2874 55.2422 12.1709 54.8389 13.3232C54.4355 14.4756 53.9746 15.8008 53.4561 17.2988C52.9375 18.7777 52.3805 20.391 51.7852 22.1387C51.1898 23.8672 50.5944 25.6245 49.999 27.4106C49.4036 29.1968 48.8179 30.9541 48.2417 32.6826C47.6655 34.4111 47.1374 36.0244 46.6572 37.5225C48.6546 36.5622 50.4408 35.3138 52.0156 33.7773C53.6097 32.2217 55.0021 30.5028 56.1929 28.6206C57.4028 26.7384 58.4303 24.741 59.2754 22.6284C60.1396 20.4966 60.8407 18.3743 61.3784 16.2617C61.9162 14.1491 62.3099 12.1037 62.5596 10.1255C62.8092 8.12809 62.9341 6.30355 62.9341 4.65186C62.9341 4.49821 62.8861 4.31576 62.79 4.10449C62.694 3.89323 62.5788 3.70117 62.4443 3.52832C62.3099 3.33626 62.1562 3.17301 61.9834 3.03857C61.8298 2.90413 61.6953 2.83691 61.5801 2.83691C61.292 2.83691 60.9655 2.94255 60.6006 3.15381C60.2357 3.36507 59.938 3.54753 59.7075 3.70117L59.333 3.125C59.7171 2.7793 60.1396 2.42399 60.6006 2.05908C61.0615 1.69417 61.5129 1.36768 61.9546 1.07959C62.4155 0.772298 62.8477 0.532227 63.251 0.359375C63.6735 0.167318 64.0384 0.0712891 64.3457 0.0712891C65.0179 0.0712891 65.6133 0.282552 66.1318 0.705078C66.6696 1.1276 67.1209 1.60775 67.4858 2.14551C67.87 2.66406 68.158 3.17301 68.3501 3.67236C68.5614 4.17171 68.667 4.49821 68.667 4.65186C68.667 5.4585 68.5518 6.53402 68.3213 7.87842C68.11 9.22282 67.7739 10.7401 67.313 12.4302C66.8521 14.1011 66.2567 15.8872 65.5269 17.7886C64.8162 19.6899 63.952 21.6009 62.9341 23.5215C61.9354 25.4229 60.783 27.2858 59.4771 29.1104C58.1903 30.9157 56.7402 32.5674 55.127 34.0654C53.5329 35.5635 51.7563 36.8503 49.7974 37.9258C47.8576 38.9821 45.745 39.7311 43.4595 40.1729C43.2674 40.2113 43.1042 40.2401 42.9697 40.2593C42.8353 40.2977 42.6816 40.3265 42.5088 40.3457C42.3551 40.3841 42.1727 40.4225 41.9614 40.4609C41.7502 40.4993 41.4717 40.5378 41.126 40.5762L40.7515 39.9424C40.9243 39.6159 41.1356 39.1357 41.3853 38.502C41.6541 37.849 41.9518 37.0807 42.2783 36.1973C42.624 35.3138 42.9793 34.3439 43.3442 33.2876C43.7284 32.2121 44.1221 31.0885 44.5254 29.917C42.6048 32.6634 40.377 34.9105 37.8418 36.6582C35.3258 38.4059 32.5218 39.7119 29.4297 40.5762L28.7959 39.9424C29.0648 39.1165 29.4393 37.9834 29.9194 36.543C30.4188 35.0833 30.9661 33.4412 31.5615 31.6167C32.1761 29.7729 32.8195 27.814 33.4917 25.7397C34.1831 23.6463 34.8649 21.5625 35.5371 19.4883C36.2093 17.3949 36.8527 15.3783 37.4673 13.4385C38.1011 11.4987 38.658 9.75098 39.1382 8.19531C39.6183 6.63965 40.0024 5.35286 40.2905 4.33496C40.5978 3.29785 40.7707 2.65446 40.8091 2.40479C40.8091 2.19352 40.7515 2.00146 40.6362 1.82861C39.9256 1.88623 39.2246 1.97266 38.5332 2.08789C37.8418 2.20312 37.2272 2.35677 36.6895 2.54883C36.4398 2.64486 36.1709 2.80811 35.8828 3.03857C35.5947 3.24984 35.3258 3.51872 35.0762 3.84521C34.8265 4.17171 34.6152 4.53662 34.4424 4.93994C34.2887 5.32406 34.2119 5.71777 34.2119 6.12109C34.2119 6.37077 34.2311 6.68766 34.2695 7.07178C34.3079 7.43669 34.3848 7.8112 34.5 8.19531L34.1543 8.54102C33.1748 7.8304 32.397 7.09098 31.8208 6.32275C31.2446 5.53532 30.9565 4.8055 30.9565 4.1333C30.9565 3.74919 31.0814 3.32666 31.3311 2.86572C31.5999 2.40479 31.9264 1.98226 32.3105 1.59814C32.6947 1.19482 33.1076 0.858724 33.5493 0.589844C33.991 0.320964 34.3848 0.186523 34.7305 0.186523C35.9212 0.186523 37.2272 0.234538 38.6484 0.330566C40.0697 0.426595 41.5773 0.474609 43.1714 0.474609C43.5171 0.474609 43.8244 0.474609 44.0933 0.474609C44.3621 0.474609 44.6118 0.474609 44.8423 0.474609C45.092 0.455404 45.3416 0.445801 45.5913 0.445801C45.841 0.426595 46.1387 0.397786 46.4844 0.359375L46.6572 0.647461C46.3115 1.68457 45.9082 2.90413 45.4473 4.30615C44.9863 5.70817 44.487 7.22542 43.9492 8.85791C43.4307 10.4712 42.8833 12.1613 42.3071 13.9282C41.7502 15.6759 41.1932 17.4333 40.6362 19.2002C40.0793 20.9671 39.5319 22.7052 38.9941 24.4146C38.4564 26.1047 37.957 27.6987 37.4961 29.1968C37.0352 30.6756 36.6126 32.02 36.2285 33.23C35.8636 34.4207 35.5659 35.4002 35.3354 36.1685C37.9666 34.6128 40.2905 32.6442 42.3071 30.2627C44.3237 27.8812 45.9082 25.2308 47.0605 22.3115V22.3691C47.4447 21.1976 47.8 20.0741 48.1265 18.9985C48.4722 17.9038 48.7699 16.9243 49.0195 16.0601C49.2884 15.1766 49.4997 14.4276 49.6533 13.813C49.8262 13.1792 49.9318 12.7279 49.9702 12.459C49.9702 12.1133 49.8742 11.8732 49.6821 11.7388V11.3931C50.2007 11.2394 50.6712 11.1146 51.0938 11.0186C51.5355 10.9033 51.9772 10.8169 52.4189 10.7593C52.8799 10.6825 53.3696 10.6248 53.8882 10.5864C54.4067 10.548 55.0021 10.5192 55.6743 10.5L55.8184 10.6729Z" fill="#3B82F6"/>
</svg>
